<?xml version="1.0" encoding="utf-8"?>
<!-- Generator: Adobe Illustrator 14.0.0, SVG Export Plug-In . SVG Version: 6.00 Build 43363)  -->
<!DOCTYPE svg PUBLIC "-//W3C//DTD SVG 1.1//EN" "http://www.w3.org/Graphics/SVG/1.1/DTD/svg11.dtd">
<svg version="1.1" id="Layer_1" xmlns="http://www.w3.org/2000/svg" xmlns:xlink="http://www.w3.org/1999/xlink" x="0px" y="0px"
	 width="672px" height="688px" viewBox="0 0 672 688" enable-background="new 0 0 672 688" xml:space="preserve">
<g>
	<path d="M401.297,178.099c0.033-0.04,0.057-0.077,0.078-0.108l-4.686-2.688l-0.313-0.155c0.148-0.322,0.574-1.659,0.985-2.953
		c3.7-11.621,14.961-46.986,41.07-59.781c17.805-8.968,30.974-22.034,36.104-35.833c2.541-6.839,3.33-15.534-13.263-22.124
		c-10.158-3.775-20.195-5.7-29.771-5.7c-4.39,0-8.736,0.407-12.919,1.211l-4.085,0.785l7.92-46.173l1.98-0.361
		c6.557-1.197,13.491-1.804,20.613-1.804c16.287,0,32.952,3.125,49.531,9.286c37.629,13.984,55.787,45.609,44.157,76.904
		c-11.728,31.555-36.797,52.306-68.781,56.933C441.315,149.676,404.088,174.771,401.297,178.099L401.297,178.099z"/>
	<path fill="#757575" d="M398.957,176.425c1.613-3.201,11.834-47.258,40.742-61.425c20.26-10.205,32.709-24.432,37.535-37.416
		c3.584-9.646,1.657-19.229-14.898-25.804c-16.694-6.204-31.565-7.087-44.297-4.641l6.876-40.088
		c16.76-3.06,40.801-2.992,68.624,7.349C529.152,27.636,547.305,57.181,536,87.602c-11.03,29.678-34.916,50.518-66.494,55.086
		C439.699,147,400.94,173.362,398.957,176.425L398.957,176.425z"/>
</g>
<g>
	<path d="M218.291,678.304c-16.287,0-32.953-3.124-49.533-9.286c-37.629-13.984-55.787-45.608-44.157-76.903
		c11.728-31.555,36.798-52.307,68.781-56.934c28.604-4.139,65.831-29.232,68.622-32.561c-0.033,0.04-0.057,0.077-0.078,0.108
		l4.989,2.862c-0.139,0.302-0.564,1.64-0.977,2.933c-3.7,11.621-14.96,46.986-41.07,59.781
		c-17.805,8.969-30.974,22.035-36.103,35.833c-2.343,6.306-3.518,15.46,13.262,22.123c10.159,3.775,20.194,5.701,29.77,5.701
		c4.391,0,8.737-0.408,12.92-1.212l4.085-0.785l-7.92,46.174l-1.981,0.361C232.347,677.697,225.413,678.304,218.291,678.304
		L218.291,678.304z"/>
	<path fill="#757575" d="M264.344,504.294c-1.613,3.2-11.834,47.258-40.742,61.425c-20.26,10.205-32.709,24.432-37.535,37.416
		c-3.584,9.645-1.657,19.229,14.898,25.803c16.694,6.205,31.565,7.088,44.297,4.641l-6.876,40.089
		c-16.76,3.06-40.801,2.991-68.624-7.349c-35.613-13.235-53.766-42.781-42.461-73.201c11.03-29.678,34.916-50.518,66.494-55.086
		C223.602,533.719,262.36,507.357,264.344,504.294L264.344,504.294z"/>
</g>
<path d="M337.839,510.365c-17.896,0-35.639-3.021-52.74-8.979c-66.775-23.267-111.459-87.422-111.259-159.701
	c-1.049-7.21-4.95-13.65-10.752-17.748c-46.57-20.134-84.954-39.11-111.024-54.887c-38.892-23.536-40.791-34.107-38.836-40.011
	c2.152-6.498,10.671-9.523,26.811-9.523c27.947,0,78.889,9.433,143.442,26.562c2.108,0.572,4.26,0.859,6.414,0.859
	c7.129,0,13.99-3.109,18.846-8.532c30.84-40.383,79.086-64.49,129.083-64.49c17.893,0,35.637,3.021,52.736,8.979
	c67.3,23.451,111.964,88.082,111.247,160.909c1.734,7.869,6.938,14.555,13.979,17.935c45.632,19.831,83.284,38.548,108.77,54.074
	c37.987,23.143,39.809,33.587,37.874,39.43c-2.15,6.495-10.667,9.523-26.802,9.523c-0.001,0-0.003,0-0.004,0
	c-28.85-0.002-81.805-9.975-149.144-28.087c-0.364-0.016-0.727-0.023-1.088-0.023c-5.699,0-11.302,2.009-15.824,5.663
	C438.783,484.938,389.576,510.365,337.839,510.365L337.839,510.365z"/>
<linearGradient id="SVGID_1_" gradientUnits="userSpaceOnUse" x1="334.9028" y1="226.5337" x2="334.9028" y2="554.0252" gradientTransform="matrix(0.9469 0.3216 -0.3216 0.9469 146.1666 -134.9562)">
	<stop  offset="0" style="stop-color:#FCEE21"/>
	<stop  offset="0.1411" style="stop-color:#FAC920"/>
	<stop  offset="0.2821" style="stop-color:#F8AB1F"/>
	<stop  offset="0.4031" style="stop-color:#F7991E"/>
	<stop  offset="0.49" style="stop-color:#F7931E"/>
</linearGradient>
<path fill="url(#SVGID_1_)" d="M514.303,364.988c-8.416-4.04-14.17-11.914-16-20.82c0.846-69.329-41.402-134.368-108.869-157.876
	c-66.336-23.113-137.173,0.854-178.021,54.433c-7.085,7.992-18.147,11.72-28.81,8.829c-95.053-25.222-161.218-33.987-166.063-19.36
	c-4.932,14.896,54.99,50.286,148.226,90.575c6.922,4.755,11.444,12.364,12.574,20.666c-0.296,68.833,41.848,133.194,108.884,156.553
	c67.864,23.646,140.444-1.979,180.8-58.179c5.549-4.641,12.68-7.126,19.994-6.697c98.274,26.454,167.155,35.911,172.098,20.975
	C663.99,439.37,605.585,404.664,514.303,364.988z"/>
<path d="M324.626,382.008c-40.971-14.276-79.831-28.878-115.288-43.17c-1.337,56.121,32.672,109.152,87.156,128.136
	c54.484,18.982,112.944-1.83,145.205-47.176C405.09,408.98,365.601,396.283,324.626,382.008z"/>
<path d="M379.164,217.305c-67.103-23.381-140.234,13.599-163.028,82.433c-3.872,11.693-6.007,23.562-6.619,35.328
	c36.229,14.62,75.493,29.346,116.237,43.543c40.745,14.197,80.628,27.047,118.042,38.087c6.501-9.715,11.854-20.463,15.729-32.156
	C482.315,315.708,446.265,240.685,379.164,217.305z M339.764,235.254l3.587,11.266l-7.143,0.012L339.764,235.254z M393.177,342.023
	l-55.255,0.096l-0.145-87.58l4.038-0.007l0.136,83.44l51.219-0.089L393.177,342.023z M400.349,343.604l-0.012-7.328l10.993,3.645
	L400.349,343.604z"/>
<g>
	
		<linearGradient id="SVGID_2_" gradientUnits="userSpaceOnUse" x1="335.1216" y1="419.8652" x2="333.7246" y2="260.4545" gradientTransform="matrix(0.9469 0.3216 -0.3216 0.9469 146.1666 -134.9562)">
		<stop  offset="0" style="stop-color:#FCEE21"/>
		<stop  offset="0.1411" style="stop-color:#FAC920"/>
		<stop  offset="0.2821" style="stop-color:#F8AB1F"/>
		<stop  offset="0.4031" style="stop-color:#F7991E"/>
		<stop  offset="0.49" style="stop-color:#F7931E"/>
	</linearGradient>
	<path fill="url(#SVGID_2_)" d="M434.512,417.662c-30.774,41.474-85.004,60.198-135.766,42.513
		c-50.762-17.688-82.652-66.422-82.439-118.541c-1.154-0.461-2.302-0.921-3.449-1.382c-0.742,54.1,32.192,105.005,84.762,123.321
		c52.573,18.317,108.917-1.479,140.45-44.851C436.888,418.372,435.7,418.019,434.512,417.662z"/>
	
		<linearGradient id="SVGID_3_" gradientUnits="userSpaceOnUse" x1="335.1826" y1="421.7227" x2="333.7924" y2="263.0808" gradientTransform="matrix(0.9469 0.3216 -0.3216 0.9469 146.1666 -134.9562)">
		<stop  offset="0" style="stop-color:#FCEE21"/>
		<stop  offset="0.1411" style="stop-color:#FAC920"/>
		<stop  offset="0.2821" style="stop-color:#F8AB1F"/>
		<stop  offset="0.4031" style="stop-color:#F7991E"/>
		<stop  offset="0.49" style="stop-color:#F7931E"/>
	</linearGradient>
	<path fill="url(#SVGID_3_)" d="M202.649,325.386l10.748,4.56c-0.202,2.173-0.33,4.344-0.423,6.512
		c1.138,0.456,2.278,0.914,3.422,1.371c0.073-2.148,0.182-4.301,0.365-6.456l3.636,1.542
		c32.069,13.365,68.333,27.227,107.009,40.703c38.509,13.417,75.353,25.038,108.608,34.454l4.23,1.168
		c-1.134,1.825-2.325,3.599-3.543,5.348c1.179,0.354,2.354,0.705,3.529,1.054c1.214-1.778,2.399-3.58,3.529-5.431l10.636,2.938
		c76.775,20.667,130.585,28.054,134.447,16.387c3.807-11.493-41.823-38.609-113.134-69.602
		c-7.382-3.547-12.148-10.875-12.886-18.878c-0.485-52.983-33.178-102.368-84.785-120.351
		c-50.979-17.762-105.537,0.288-137.548,40.943l-0.318-0.11c-5.439,7.144-14.695,10.626-23.589,8.215
		c-74.256-19.705-125.947-26.552-129.729-15.125C83.001,266.266,129.813,293.912,202.649,325.386z M241.543,266.09
		c30.846-41.098,84.825-59.598,135.369-41.985c49.214,17.147,80.69,63.475,82.377,113.778l-0.031-0.01
		c-4.861,75.276-90.697,41.174-129.208,27.757C292.097,352.405,206.964,324.337,241.543,266.09z"/>
</g>
</svg>
